<svg width="1920" height="1080" viewBox="0 0 1920 1080" fill="none" xmlns="http://www.w3.org/2000/svg" role="img" aria-label="Premium travel abstract background">
  <defs>
    <linearGradient id="bgMain" x1="168" y1="72" x2="1826" y2="1048" gradientUnits="userSpaceOnUse">
      <stop offset="0" stop-color="#07102B"/>
      <stop offset="0.45" stop-color="#102A67"/>
      <stop offset="1" stop-color="#081326"/>
    </linearGradient>
    <linearGradient id="meshBlue" x1="558" y1="208" x2="1484" y2="980" gradientUnits="userSpaceOnUse">
      <stop offset="0" stop-color="#4A7AE8" stop-opacity="0.38"/>
      <stop offset="1" stop-color="#1B3A8C" stop-opacity="0"/>
    </linearGradient>
    <linearGradient id="meshGold" x1="1180" y1="144" x2="1658" y2="636" gradientUnits="userSpaceOnUse">
      <stop offset="0" stop-color="#F2D56E" stop-opacity="0.34"/>
      <stop offset="1" stop-color="#C9A32A" stop-opacity="0"/>
    </linearGradient>
    <linearGradient id="lineGold" x1="0" y1="0" x2="1" y2="1">
      <stop offset="0" stop-color="#EFD66A"/>
      <stop offset="1" stop-color="#C9A32A"/>
    </linearGradient>
    <filter id="softBlur" x="-20%" y="-20%" width="140%" height="140%">
      <feGaussianBlur stdDeviation="28"/>
    </filter>
    <filter id="shadow" x="-30%" y="-30%" width="160%" height="160%">
      <feDropShadow dx="0" dy="24" stdDeviation="32" flood-color="#000000" flood-opacity="0.28"/>
    </filter>
  </defs>

  <rect width="1920" height="1080" fill="url(#bgMain)"/>
  <circle cx="318" cy="220" r="214" fill="#0B1F54" opacity="0.72" filter="url(#softBlur)"/>
  <circle cx="1600" cy="180" r="240" fill="url(#meshGold)" filter="url(#softBlur)"/>
  <circle cx="1520" cy="860" r="300" fill="url(#meshBlue)" filter="url(#softBlur)"/>
  <circle cx="820" cy="980" r="240" fill="#C9A32A" opacity="0.12" filter="url(#softBlur)"/>

  <path d="M-80 820C200 620 380 610 620 700C860 790 1050 820 1320 710C1590 600 1730 560 2000 620" stroke="#4A7AE8" stroke-opacity="0.30" stroke-width="3" stroke-dasharray="10 18"/>
  <path d="M180 210C340 180 520 180 680 224C840 268 1030 260 1230 210C1430 160 1600 156 1800 226" stroke="#F2D56E" stroke-opacity="0.30" stroke-width="3" stroke-dasharray="10 18"/>
  <path d="M250 920C420 860 560 850 760 900C960 950 1160 960 1340 900C1520 840 1660 810 1860 830" stroke="#FFFFFF" stroke-opacity="0.08" stroke-width="2" stroke-dasharray="6 16"/>

  <g filter="url(#shadow)">
    <rect x="1140" y="214" width="460" height="560" rx="42" fill="white" fill-opacity="0.06" stroke="white" stroke-opacity="0.12"/>
    <rect x="1180" y="254" width="310" height="54" rx="18" fill="white" fill-opacity="0.10"/>
    <rect x="1180" y="338" width="380" height="20" rx="10" fill="white" fill-opacity="0.16"/>
    <rect x="1180" y="370" width="332" height="20" rx="10" fill="white" fill-opacity="0.12"/>
    <rect x="1180" y="442" width="240" height="180" rx="28" fill="url(#lineGold)" fill-opacity="0.9"/>
    <circle cx="1300" cy="532" r="82" fill="none" stroke="white" stroke-opacity="0.55" stroke-width="4"/>
    <circle cx="1300" cy="532" r="46" fill="none" stroke="white" stroke-opacity="0.72" stroke-width="4"/>
    <path d="M1240 530C1288 470 1348 444 1412 452" stroke="white" stroke-opacity="0.84" stroke-width="5" stroke-linecap="round"/>
    <path d="M1248 560C1316 592 1378 590 1440 564" stroke="white" stroke-opacity="0.68" stroke-width="4" stroke-linecap="round"/>
    <rect x="1450" y="434" width="122" height="218" rx="26" fill="white" fill-opacity="0.92"/>
    <rect x="1480" y="468" width="76" height="16" rx="8" fill="#D9E3FF"/>
    <rect x="1480" y="500" width="96" height="12" rx="6" fill="#C7D4F8"/>
    <rect x="1480" y="522" width="72" height="12" rx="6" fill="#D5DCF4"/>
    <rect x="1480" y="544" width="90" height="12" rx="6" fill="#D5DCF4"/>
    <rect x="1180" y="660" width="220" height="54" rx="18" fill="white" fill-opacity="0.12"/>
    <rect x="1410" y="660" width="160" height="54" rx="18" fill="white" fill-opacity="0.12"/>
  </g>

  <g opacity="0.92">
    <path d="M880 360C970 292 1078 288 1170 340" stroke="white" stroke-opacity="0.45" stroke-width="6" stroke-linecap="round"/>
    <path d="M968 382L1094 430L1030 438L1050 500Z" fill="url(#lineGold)"/>
    <path d="M944 406L1160 332" stroke="#F2D56E" stroke-opacity="0.58" stroke-width="5" stroke-linecap="round"/>
  </g>

  <g opacity="0.55">
    <circle cx="422" cy="244" r="10" fill="#F2D56E"/>
    <circle cx="472" cy="280" r="7" fill="#4A7AE8"/>
    <circle cx="548" cy="210" r="8" fill="#FFFFFF"/>
    <circle cx="618" cy="254" r="6" fill="#F2D56E"/>
    <circle cx="720" cy="196" r="8" fill="#FFFFFF"/>
    <circle cx="812" cy="246" r="7" fill="#4A7AE8"/>
  </g>

  <g opacity="0.25">
    <path d="M220 620C324 582 398 582 500 620" stroke="#FFFFFF" stroke-width="2" stroke-linecap="round" stroke-dasharray="8 16"/>
    <path d="M250 660C396 620 540 624 702 670" stroke="#F2D56E" stroke-width="2" stroke-linecap="round" stroke-dasharray="8 16"/>
  </g>
</svg>
